<?xml version="1.0" encoding="utf-8"?>
<!-- Generator: Adobe Illustrator 15.1.0, SVG Export Plug-In . SVG Version: 6.00 Build 0)  -->
<!DOCTYPE svg PUBLIC "-//W3C//DTD SVG 1.1//EN" "http://www.w3.org/Graphics/SVG/1.1/DTD/svg11.dtd">
<svg version="1.1" id="Layer_1" xmlns="http://www.w3.org/2000/svg" xmlns:xlink="http://www.w3.org/1999/xlink" x="0px" y="0px"
	 width="64.375px" height="113.404px" viewBox="0 0 64.375 113.404" enable-background="new 0 0 64.375 113.404"
	 xml:space="preserve">
<path fill="#EFEFF0" d="M28.789,11.781l-0.1,6.262l-2.492,0.641c-8.383,2.121-14.074,7.677-15.691,15.319
	c-1.415,6.7,0.168,12.02,5.018,16.802c3.334,3.299,6.464,5.186,13.636,8.283c6.6,2.863,9.057,4.243,11.549,6.633
	c2.423,2.29,3.602,4.714,3.871,7.777c0.707,8.62-7.07,14.378-17.846,13.165c-4.343-0.504-7.744-1.481-11.582-3.367
	c-1.817-0.908-3.334-1.582-3.334-1.582c-0.168,0.202-2.828,7.744-2.828,8.015c0,0.572,6.364,3.367,9.629,4.176
	c1.819,0.472,4.647,0.941,6.262,1.077l2.963,0.202v6.33v6.364h3.872h3.872l0.066-6.464l0.101-6.432l2.795-0.739
	c4.41-1.18,7.543-2.931,10.706-6.061c2.121-2.088,2.997-3.266,3.975-5.287c3.838-8.047,2.459-17.541-3.435-23.603
	c-3.065-3.132-7.173-5.557-16.5-9.63c-6.397-2.794-9.698-5.117-11.415-8.047c-0.74-1.214-0.942-2.056-1.044-4.344
	c-0.135-2.626-0.066-2.964,0.909-4.982c1.853-3.702,4.949-5.657,10.034-6.229c4.748-0.504,10.236,0.473,15.152,2.694l2.728,1.279
	l1.515-3.938l1.516-3.905l-0.707-0.571c-1.885-1.481-8.383-3.401-12.93-3.839l-2.459-0.235v-5.993V5.527h-3.871h-3.867
	L28.789,11.781z"/>
</svg>
