<?xml version="1.0" encoding="utf-8"?>
<!-- Generator: Adobe Illustrator 15.1.0, SVG Export Plug-In . SVG Version: 6.00 Build 0)  -->
<!DOCTYPE svg PUBLIC "-//W3C//DTD SVG 1.1//EN" "http://www.w3.org/Graphics/SVG/1.1/DTD/svg11.dtd">
<svg version="1.1" xmlns="http://www.w3.org/2000/svg" xmlns:xlink="http://www.w3.org/1999/xlink" x="0px" y="0px"
	 width="105.856px" height="163.768px" viewBox="0 0 105.856 163.768" enable-background="new 0 0 105.856 163.768"
	 xml:space="preserve">
<g id="Layer_1">
</g>
<g id="product_page_scrool_3">
	<g>
		<path fill-rule="evenodd" clip-rule="evenodd" fill="#F1F2F2" d="M29.781,125.311h45.867c8.587-13.406,15.243-26.81,20.793-40.242
			c52.623-110.85-134.573-115.131-89.316,0C13.49,98.501,20.19,111.905,29.781,125.311z"/>
		<path fill-rule="evenodd" clip-rule="evenodd" fill="#F1F2F2" d="M28.07,131.036v0.416c0,1.445,1.146,2.594,2.591,2.594h43.181
			c1.442,0,2.593-1.148,2.593-2.594v-0.416c0-1.422-1.15-2.59-2.593-2.59H30.661C29.215,128.446,28.07,129.614,28.07,131.036z"/>
		<path fill-rule="evenodd" clip-rule="evenodd" fill="#F1F2F2" d="M28.07,138.866v0.414c0,1.443,1.146,2.598,2.591,2.598h43.181
			c1.442,0,2.593-1.154,2.593-2.598v-0.414c0-1.42-1.15-2.594-2.593-2.594H30.661C29.215,136.272,28.07,137.446,28.07,138.866z"/>
		<path fill-rule="evenodd" clip-rule="evenodd" fill="#F1F2F2" d="M28.07,146.713v0.393c0,1.443,1.146,2.617,2.591,2.617h43.181
			c1.442,0,2.593-1.174,2.593-2.617v-0.393c0-1.439-1.15-2.588-2.593-2.588H30.661C29.215,144.125,28.07,145.274,28.07,146.713z"/>
		<path fill-rule="evenodd" clip-rule="evenodd" fill="#F1F2F2" d="M40.814,160.932v-1.93c0-0.393,0.071-0.76,0.221-1.105h-7.71
			c-2.882,0-5.255-1.248-5.255-2.791v-0.023c0-1.514,2.373-2.785,5.255-2.785h37.849c2.908,0,5.261,1.271,5.261,2.785v0.023
			c0,1.543-2.353,2.791-5.261,2.791h-7.879c0.149,0.346,0.22,0.713,0.22,1.105v1.93c0,1.566-1.247,2.836-2.813,2.836H43.654
			C42.087,163.768,40.814,162.498,40.814,160.932z"/>
	</g>
</g>
</svg>
