<?xml version="1.0" encoding="utf-8"?>
<!-- Generator: Adobe Illustrator 15.1.0, SVG Export Plug-In . SVG Version: 6.00 Build 0)  -->
<!DOCTYPE svg PUBLIC "-//W3C//DTD SVG 1.1//EN" "http://www.w3.org/Graphics/SVG/1.1/DTD/svg11.dtd">
<svg version="1.1" id="Capa_1" xmlns="http://www.w3.org/2000/svg" xmlns:xlink="http://www.w3.org/1999/xlink" x="0px" y="0px"
	 width="128.037px" height="88.04px" viewBox="170.868 188.905 128.037 88.04"
	 enable-background="new 170.868 188.905 128.037 88.04" xml:space="preserve">
<g>
	<g id="_x33_6_24_">
		<g>
			<path fill="#EFEFF0" d="M210.361,197.653h39.504c1.039,0,1.88-0.841,1.88-1.879c0-1.039-0.841-1.88-1.88-1.88h-39.504
				c-1.038,0-1.88,0.841-1.88,1.88C208.48,196.812,209.323,197.653,210.361,197.653z"/>
			<path fill="#EFEFF0" d="M175.029,216.03h39.505c1.038,0,1.879-0.842,1.879-1.88s-0.841-1.879-1.879-1.879h-39.505
				c-1.038,0-1.879,0.841-1.879,1.879S173.991,216.03,175.029,216.03z"/>
			<path fill="#EFEFF0" d="M185.634,235.369c0,1.038,0.841,1.879,1.879,1.879h39.505c1.038,0,1.88-0.841,1.88-1.879
				c0-1.039-0.842-1.879-1.88-1.879h-39.505C186.476,233.489,185.634,234.33,185.634,235.369z"/>
			<path fill="#EFEFF0" d="M208.243,257.212h-35.496c-1.038,0-1.879,0.841-1.879,1.88s0.841,1.879,1.879,1.879h35.496
				c1.038,0,1.879-0.84,1.879-1.879S209.281,257.212,208.243,257.212z"/>
			<path fill="#EFEFF0" d="M272.111,209.437c5.669,0,10.266-4.597,10.266-10.266s-4.597-10.266-10.266-10.266
				c-5.671,0-10.268,4.597-10.268,10.266C261.843,204.84,266.44,209.437,272.111,209.437z"/>
			<path fill="#EFEFF0" d="M288.998,206.481c-5.896,8.257-13.789,9.213-22.282,4.171c-0.579-0.343-3.145-1.756-3.712-2.094
				c-13.664-8.112-27.313-4.931-36.466,7.887c-3.89,5.453,5.106,10.62,8.952,5.231c4.729-6.622,10.743-8.538,17.32-6.441
				c-3.367,5.845-6.312,11.655-10.466,19.91c-4.156,8.254-13.331,14.846-22.146,9.69c-6.361-3.717-12.097,5.421-5.755,9.126
				c12.036,7.035,26.147,2.716,33.351-6.428c0.251,0.134,0.515,0.254,0.804,0.355c5.886,2.051,13.6,7.51,15.95,9.443
				c2.351,1.936,6.388,11.791,8.785,16.743c2.909,6.009,12.304,1.632,9.383-4.401c-2.718-5.619-7.279-16.832-10.838-19.67
				c-2.854-2.275-8.396-6.51-13.096-8.912c3.18-6.159,6.491-12.252,9.977-18.24c11.109,3.404,21.669-0.606,29.19-11.141
				C301.841,206.259,292.848,201.092,288.998,206.481z"/>
		</g>
	</g>
</g>
</svg>
