<?xml version="1.0" encoding="utf-8"?>
<!-- Generator: Adobe Illustrator 15.1.0, SVG Export Plug-In . SVG Version: 6.00 Build 0)  -->
<!DOCTYPE svg PUBLIC "-//W3C//DTD SVG 1.1//EN" "http://www.w3.org/Graphics/SVG/1.1/DTD/svg11.dtd">
<svg version="1.1" id="Layer_1" xmlns="http://www.w3.org/2000/svg" xmlns:xlink="http://www.w3.org/1999/xlink" x="0px" y="0px"
	 width="175.75px" height="75.906px" viewBox="0 0 175.75 75.906" enable-background="new 0 0 175.75 75.906" xml:space="preserve">
<g id="Layer_1_1_">
</g>
<g id="Brand">
	<g>
		<rect x="9.06" y="7.936" fill="none" width="157.997" height="67.97"/>
	</g>
	<g enable-background="new    ">
		<path fill="#F1F2F2" d="M60.247,33.913c0,3.258-0.663,6.563-1.986,9.914c-1.324,3.352-3.111,6.199-5.361,8.543
			c-4.148,4.313-9.645,6.469-16.488,6.469c-1.383,0-3.445-0.047-6.188-0.141s-4.805-0.141-6.188-0.141
			c-1.219,0-3.047,0.047-5.484,0.141c-2.438,0.094-4.254,0.141-5.449,0.141c-0.773,0-1.16-0.34-1.16-1.02
			c0-2.555,0.117-6.393,0.352-11.514c0.234-5.121,0.352-8.959,0.352-11.514c0-2.719-0.111-6.803-0.334-12.252
			c-0.223-5.449-0.334-9.521-0.334-12.217c0-0.539,0.293-0.809,0.879-0.809h8.859c0.891,0,2.156-0.012,3.797-0.035
			c1.758-0.023,3.082-0.035,3.973-0.035c9.469,0,16.383,1.441,20.742,4.324c3.046,1.992,5.496,4.957,7.348,8.895
			C59.356,26.389,60.247,30.139,60.247,33.913z M42.106,33.913c0-2.766-0.944-5.121-2.83-7.066
			c-1.887-1.945-4.201-2.918-6.943-2.918c-1.172,0-1.758,0.486-1.758,1.459s-0.023,2.443-0.07,4.412
			c-0.047,1.969-0.07,3.445-0.07,4.43c0,0.961,0.023,2.396,0.07,4.307c0.047,1.91,0.07,3.346,0.07,4.307
			c0,1.055,0.656,1.582,1.969,1.582c2.813,0,5.133-1.055,6.961-3.164C41.239,39.245,42.106,36.796,42.106,33.913z"/>
		<path fill="#F1F2F2" d="M91.114,25.616c0,0.867-0.07,2.186-0.211,3.955s-0.211,3.1-0.211,3.99c0,0.867,0.035,2.174,0.105,3.92
			s0.105,3.053,0.105,3.92c0,1.031-1.078,1.547-3.234,1.547c-0.492,0-1.137-0.029-1.934-0.088c-0.797-0.059-1.301-0.088-1.512-0.088
			c-1.688,0-2.531,0.656-2.531,1.969c0,1.383,0.082,3.457,0.246,6.223c0.164,2.766,0.246,4.84,0.246,6.223
			c0,1.195-0.504,1.793-1.512,1.793c-0.75,0-1.887-0.035-3.41-0.105c-1.524-0.07-2.66-0.105-3.41-0.105
			c-0.797,0-1.999,0.012-3.604,0.035c-1.605,0.023-2.807,0.035-3.604,0.035c-1.008,0-1.512-0.504-1.512-1.512V40.909
			c0-5.109-0.504-9.504-1.512-13.184c-0.07-0.258-0.105-0.48-0.105-0.668c0-0.469,0.199-0.773,0.598-0.914
			c0.585-0.211,1.816-0.398,3.691-0.563c2.18-0.188,3.527-0.328,4.043-0.422c4.781-0.961,7.324-1.441,7.629-1.441
			c0.469,0,0.756,0.773,0.861,2.32s0.322,2.32,0.65,2.32c-0.211,0,0.732-0.633,2.83-1.898c2.097-1.266,4.224-1.898,6.381-1.898
			C90.81,24.561,91.114,24.913,91.114,25.616z"/>
		<path fill="#F1F2F2" d="M113.79,25.089c0,0.164-0.023,0.469-0.07,0.914c-0.82,8.813-1.23,14.379-1.23,16.699
			c0,1.57,0.041,3.932,0.123,7.084s0.123,5.525,0.123,7.119c0,0.773-0.023,1.219-0.07,1.336c-0.117,0.398-0.48,0.598-1.09,0.598
			c-0.82,0-2.045-0.047-3.674-0.141s-2.854-0.141-3.674-0.141s-2.045,0.047-3.674,0.141s-2.854,0.141-3.674,0.141
			c-0.61,0-0.973-0.199-1.09-0.598c-0.048-0.117-0.07-0.563-0.07-1.336c0-1.594,0.035-3.967,0.105-7.119s0.105-5.514,0.105-7.084
			c0-3.563-0.399-9.129-1.195-16.699c-0.07-0.445-0.105-0.762-0.105-0.949c0-0.609,0.363-0.914,1.09-0.914
			c0.937,0,2.35,0.152,4.236,0.457s3.311,0.457,4.271,0.457s2.385-0.152,4.271-0.457s3.299-0.457,4.236-0.457
			C113.438,24.139,113.79,24.456,113.79,25.089z M113.438,16.159c0,4.922-3,7.383-9,7.383c-2.555,0-4.641-0.586-6.258-1.758
			c-1.828-1.313-2.742-3.188-2.742-5.625c0-2.32,0.949-4.195,2.848-5.625c1.734-1.313,3.785-1.969,6.152-1.969
			s4.418,0.656,6.152,1.969C112.489,11.964,113.438,13.839,113.438,16.159z"/>
		<path fill="#F1F2F2" d="M160.829,42.139c0,4.992-1.535,9.188-4.605,12.586c-3.188,3.516-7.242,5.273-12.164,5.273
			c-1.922,0-4.336-0.773-7.242-2.32c-0.211,0-0.316,0.34-0.316,1.02c0,1.055-0.023,2.625-0.07,4.711s-0.07,3.656-0.07,4.711
			c0,1.195-0.504,1.793-1.512,1.793c-7.125,0-11.859-0.094-14.203-0.281c-1.008-0.07-1.512-0.574-1.512-1.512V40.909
			c0-4.828-0.387-9.75-1.16-14.766c-0.047-0.305-0.07-0.527-0.07-0.668c0-0.445,0.199-0.75,0.598-0.914
			c2.484-0.211,5.402-0.469,8.754-0.773c0.023-0.023,1.488-0.27,4.395-0.738c2.039-0.328,3.434-0.492,4.184-0.492
			c0.703,0,1.154,0.463,1.354,1.389s0.439,1.389,0.721,1.389c0.445,0,1.371-0.152,2.777-0.457s2.484-0.457,3.234-0.457
			c4.922,0,8.988,1.723,12.199,5.168C159.259,32.964,160.829,37.147,160.829,42.139z M143.04,41.858
			c0-0.938-0.311-1.752-0.932-2.443s-1.389-1.037-2.303-1.037c-0.938,0-1.711,0.346-2.32,1.037s-0.914,1.506-0.914,2.443
			c0,0.891,0.316,1.688,0.949,2.391s1.395,1.055,2.285,1.055c0.914,0,1.682-0.34,2.303-1.02S143.04,42.796,143.04,41.858z"/>
	</g>
</g>
</svg>
