<?xml version="1.0" encoding="utf-8"?>
<!-- Generator: Adobe Illustrator 15.1.0, SVG Export Plug-In . SVG Version: 6.00 Build 0)  -->
<!DOCTYPE svg PUBLIC "-//W3C//DTD SVG 1.1//EN" "http://www.w3.org/Graphics/SVG/1.1/DTD/svg11.dtd">
<svg version="1.1" id="Capa_1" xmlns="http://www.w3.org/2000/svg" xmlns:xlink="http://www.w3.org/1999/xlink" x="0px" y="0px"
	 width="110px" height="110px" viewBox="251 250.999 110 110" enable-background="new 251 250.999 110 110" xml:space="preserve">
<g>
	<path fill="#EFEFF0" d="M358.232,253.68c-1.86-1.837-4.173-2.681-6.853-2.681c-2.803,0-5.729,0.881-8.882,2.622
		c-3.106,1.715-5.899,3.695-8.343,5.841h-0.12c-0.477,0.417-1.966,1.848-4.528,4.409c-2.563,2.563-4.708,4.709-6.438,6.557
		l-51.788-14.78c-1.238-0.353-2.322,0.003-3.159,0.834l-8.642,8.582c-0.776,0.772-1.042,1.665-0.894,2.801
		c0.149,1.129,0.714,1.908,1.729,2.443L301.437,292l-21.335,21.396l-17.224,0.596c-0.834,0.029-1.551,0.294-2.205,0.953
		l-8.522,8.583c-0.775,0.778-1.193,1.667-1.014,2.919c0.297,1.252,0.954,2.085,2.086,2.443l21.036,8.761l8.761,21.038
		c0.435,1.044,1.192,1.728,2.444,2.025h0.595c0.894,0,1.669-0.298,2.324-0.954l8.522-8.522c0.656-0.654,0.987-1.43,1.013-2.204
		l0.596-17.223l21.335-21.336l21.753,41.122c0.536,1.013,1.314,1.579,2.443,1.728c1.137,0.15,2.024-0.236,2.801-1.014l8.522-8.521
		c0.894-0.895,1.247-1.922,0.894-3.159l-14.778-51.789l10.727-10.728c1.847-1.847,3.897-4.336,5.959-8.105
		c1.037-1.893,1.802-3.75,2.324-5.602C361.523,260.776,361.081,256.493,358.232,253.68z M347.564,273.466l-12.038,12.099
		c-1.012,1.016-1.224,1.997-0.895,3.158l14.661,51.79l-4.052,3.993l-21.694-41.003c-0.535-1.014-1.312-1.61-2.324-1.728
		c-1.131-0.239-2.086,0.058-2.92,0.894l-25.388,25.387c-0.536,0.537-0.834,1.253-1.013,2.146l-0.597,17.223l-4.111,4.173
		l-7.449-17.701c-0.239-0.834-0.818-1.469-1.729-1.847l-17.699-7.331l4.171-4.111l17.164-0.656c1.013-0.179,1.728-0.477,2.205-0.954
		l25.387-25.387c0.836-0.834,1.133-1.788,0.896-2.92c-0.119-1.013-0.716-1.788-1.729-2.324l-41.001-21.752l3.992-3.994l51.79,14.661
		c1.161,0.329,2.146,0.12,3.158-0.894l5.126-5.125l4.709-4.648l2.024-2.026l0.239-0.12c5.006-4.291,9.893-6.853,12.934-6.853
		c1.07,0,1.786,0.238,2.085,0.714C356.861,261.666,349.675,271.345,347.564,273.466z"/>
</g>
</svg>
